<?xml version="1.0" encoding="UTF-8"?>
<svg width="803px" height="569px" viewBox="0 0 803 569" version="1.1" xmlns="http://www.w3.org/2000/svg" xmlns:xlink="http://www.w3.org/1999/xlink">
    <!-- Generator: Sketch 52.6 (67491) - http://www.bohemiancoding.com/sketch -->
    <title>verification</title>
    <desc>Created with Sketch.</desc>
    <defs>
        <circle id="path-1" cx="707.33457" cy="77.37523" r="77.37523"></circle>
        <filter x="-19.1%" y="-17.8%" width="138.1%" height="138.1%" filterUnits="objectBoundingBox" id="filter-2">
            <feOffset dx="0" dy="2" in="SourceAlpha" result="shadowOffsetOuter1"></feOffset>
            <feGaussianBlur stdDeviation="9.5" in="shadowOffsetOuter1" result="shadowBlurOuter1"></feGaussianBlur>
            <feColorMatrix values="0 0 0 0 0   0 0 0 0 0   0 0 0 0 0  0 0 0 0.378141984 0" type="matrix" in="shadowBlurOuter1"></feColorMatrix>
        </filter>
    </defs>
    <g id="Page-1" stroke="none" stroke-width="1" fill="none" fill-rule="evenodd">
        <g id="verification" transform="translate(0.000000, 17.000000)">
            <ellipse id="Oval" fill="#E6E6E6" cx="158" cy="539.73152" rx="158" ry="12"></ellipse>
            <path d="M120.77227,122.41953 C148.26903,110.72423 182.51669,118.13425 215.96319,123.2771 C216.27443,117.0491 220.04704,109.46928 216.09519,105.12426 C211.29404,99.84546 211.73602,94.29897 214.62511,88.72051 C222.01299,74.45551 211.42821,59.27676 200.74083,46.65581 C195.855156,40.8991442 188.51618,37.8188046 180.98546,38.36402 L161.18796,39.77813 C151.322661,40.482776 142.931174,47.2373282 140.135,56.72427 C135.40776,63.15344 132.87764,69.56482 134.47062,75.94281 C127.38997,80.78163 126.20033,86.62258 129.38211,93.20721 C132.08011,97.35313 132.05139,101.38882 129.25936,105.31281 C125.592604,110.315605 122.784187,115.893873 120.94925,121.81891 L120.77227,122.41953 Z" id="Path" fill="#002444"></path>
            <path d="M774.20889,476.96303 L213.79111,476.96303 C203.413067,476.96303 195,468.549963 195,458.17192 C398.151333,434.56184 597.484667,434.56184 793,458.17192 C793,468.549963 784.586933,476.96303 774.20889,476.96303 Z" id="Path" fill="#002444"></path>
            <path d="M793,459.27727 L195,458.17191 L264.30611,341.55638 L264.63771,341.0037 L264.63771,83.99633 C264.637185,77.6961688 267.139681,71.653895 271.594568,67.1990082 C276.049455,62.7441215 282.091729,60.2416248 288.39189,60.24215 L696.292,60.24215 C702.592161,60.2416248 708.634435,62.7441215 713.089322,67.1990082 C717.544209,71.653895 720.046705,77.6961688 720.04618,83.99633 L720.04618,342.77225 L793,459.27727 Z" id="Path" fill="#184262"></path>
            <path d="M287.85028,76.82255 C283.578948,76.8273446 280.117545,80.2887477 280.11275,84.56008 L280.11275,318.89649 C280.117737,323.167741 283.579029,326.629028 287.85028,326.63401 L700.14972,326.63401 C704.420893,326.628842 707.882076,323.167663 707.88725,318.89649 L707.88725,84.56008 C707.882268,80.2888253 704.420975,76.8275315 700.14972,76.82255 L287.85028,76.82255 Z" id="Path" fill="#FFFFFF"></path>
            <path d="M289.57794,357.58411 C288.28365,357.586302 287.108233,358.33931 286.56519,359.51417 L265.20982,405.93931 C264.737391,406.96596 264.820369,408.162532 265.429983,409.114147 C266.039596,410.065762 267.091897,410.641376 268.22203,410.64141 L717.31411,410.64141 C718.463396,410.6414 719.530712,410.046237 720.134803,409.06852 C720.738895,408.090802 720.793597,406.869987 720.27937,405.84216 L697.0668,359.41702 C696.508194,358.291112 695.358399,357.580392 694.10154,357.58411 L289.57794,357.58411 Z" id="Path" fill="#002444"></path>
            <circle id="Oval" fill="#FFFFFF" cx="492.34196" cy="67.97967" r="4.97412"></circle>
            <path d="M448.19986,419.48429 C446.701313,419.486176 445.389656,420.491371 444.99821,421.93789 L439.64142,441.83438 C439.37296,442.830537 439.583488,443.894896 440.21097,444.713838 C440.838453,445.53278 441.811382,446.012978 442.84308,446.01294 L544.71708,446.01294 C545.789709,446.012955 546.796067,445.494023 547.418079,444.620162 C548.040092,443.7463 548.20089,442.625501 547.84965,441.61201 L540.96274,421.71552 C540.499934,420.380328 539.242206,419.484801 537.82908,419.48429 L448.19986,419.48429 Z" id="Path" fill="#002444"></path>
            <polygon id="Path" fill="#002444" points="720.046 337.135 720.046 341.556 264.306 341.556 264.649 341.004 264.649 337.135"></polygon>
            <g id="Oval">
                <use fill="black" fill-opacity="1" filter="url(#filter-2)" xlink:href="#path-1"></use>
                <use fill="#742128" fill-rule="evenodd" xlink:href="#path-1"></use>
            </g>
            <path d="M740.53233,116.088645 L676.42144,116.088645 C673.980543,116.086231 672.002409,114.108092 672,111.667195 L672,72.9795555 C672.002601,70.53874 673.980624,68.5607169 676.42144,68.5581155 L740.53233,68.5581155 C742.973146,68.5607169 744.951169,70.53874 744.95377,72.9795555 L744.95377,111.667165 C744.951378,114.108074 742.973239,116.086231 740.53233,116.088645 Z" id="Shape" fill="#FFFFFF" fill-rule="nonzero"></path>
            <path d="M728.793,73.3510955 L689,73.3510955 L689,55.6653255 C689,42.8554555 697.36792,33.5581155 708.89649,33.5581155 C720.42506,33.5581155 728.79297,42.8554555 728.79297,55.6653255 L728.793,73.3510955 Z M693.42147,68.9296555 L724.37156,68.9296555 L724.37156,55.6653255 C724.37156,45.2523255 718.00818,37.9795655 708.89656,37.9795655 C699.78494,37.9795655 693.42151,45.2523755 693.42151,55.6653255 L693.42147,68.9296555 Z" id="Shape" stroke="#FFFFFF" stroke-width="4" fill="#FFFFFF" fill-rule="nonzero"></path>
            <circle id="Oval" fill="#FFFFFF" cx="707.33457" cy="86.21811" r="4.42144"></circle>
            <path d="M263.522,208.32817 L204.6189,239.64376 L203.87329,213.54747 C223.09882,210.33799 241.38998,204.75007 258.3027,195.65287 L264.4632,180.43279 C265.82887,177.05878 268.871324,174.654012 272.46953,174.104552 C276.067737,173.555092 279.689232,174.94225 281.99963,177.75491 C285.447613,181.952459 285.050355,188.104516 281.09116,191.82376 L263.522,208.32817 Z" id="Path" fill="#FFB8B8"></path>
            <path d="M119.59819,389.13283 C118.729018,385.945146 119.263682,382.537958 121.06747,379.76972 L134.00678,359.91195 C140.34687,350.181886 153.026883,346.836598 163.34178,352.17268 C157.90378,361.42915 158.66184,369.54947 165.21984,376.60633 C155.039308,381.576271 145.630119,387.990821 137.28378,395.65125 C134.192236,397.758832 130.272546,398.241871 126.761816,396.947913 C123.251086,395.653955 120.58246,392.742645 119.59819,389.13283 Z" id="Path" fill="#002444"></path>
            <path d="M266.20475,363.1685 C262.222959,369.804825 255.072894,373.888965 247.3339,373.94759 L161.37363,374.59881 L157.64563,352.97617 L195.67163,341.79204 L163.61047,317.18697 L198.654,276.17853 L262.304,335.50284 C269.970621,342.648387 271.596778,354.181735 266.20475,363.1685 Z" id="Path" fill="#002444"></path>
            <path d="M147.95266,511.04515 L127.82124,511.04515 C109.74615,387.14743 91.34741,262.90329 145.71584,216.52986 L209.83815,226.96838 L201.63646,281.39776 L165.84726,322.40621 L147.95266,511.04515 Z" id="Path" fill="#002444"></path>
            <path d="M165.64917,539.1117 C162.461535,539.981056 159.054316,539.446593 156.28597,537.64297 L134.42743,534.70483 C124.697011,528.365317 121.350977,515.685523 126.68643,505.37032 C135.94323,510.80781 144.0635,510.04923 151.11997,503.49082 C156.1059,513.5582 164.3209,512.94413 172.16654,521.42576 C174.274295,524.517176 174.75756,528.436828 173.463811,531.947626 C172.170062,535.458423 169.258917,538.127216 165.64917,539.1117 Z" id="Path" fill="#002444"></path>
            <path d="M195.6716,133.76734 L158.39118,124.82003 C164.58286,112.14613 165.09273,98.04385 162.11918,83.06597 L187.46986,82.32036 C188.26421,100.94576 190.66732,118.34657 195.6716,133.76734 Z" id="Path" fill="#FFB8B8"></path>
            <path d="M205.91752,249.41819 C178.77879,267.91127 159.60334,250.05091 144.97023,222.49473 C147.00361,205.63285 143.71123,185.45412 137.61351,163.52838 C131.991793,143.480661 142.633204,122.462771 162.11918,115.12714 L194.18034,128.54814 C221.40396,150.73852 226.76234,174.77514 216.54859,200.12654 L205.91752,249.41819 Z" id="Path" fill="#406A8A"></path>
            <path d="M127.82124,152.40754 L97.9969,168.06532 L150.9351,199.38087 L158.3011,217.55038 C159.29469,220.00123 159.237408,222.752708 158.142677,225.160083 C157.047946,227.567457 155.01198,229.419147 152.51185,230.28126 C149.661125,231.26427 146.514612,230.856215 144.008936,229.178559 C141.503259,227.500904 139.927332,224.747087 139.75026,221.73684 L139.00537,209.07377 L71.72157,186.87011 C67.1281573,185.354283 63.4873272,181.809771 61.84892,177.25864 C59.4249246,170.525365 61.8504284,163.004471 67.75154,158.95606 L121.85639,121.83761 L127.82124,152.40754 Z" id="Path" fill="#FFB8B8"></path>
            <path d="M157.64557,155.38998 C145.20696,149.93888 133.89623,155.86042 119.61957,160.60924 L117.38274,121.09199 C131.55886,113.53631 145.07483,111.49918 157.64559,117.36399 L157.64557,155.38998 Z" id="Path" fill="#406A8A"></path>
            <circle id="Oval" fill="#FFB8B8" cx="172.52496" cy="78.09251" r="23.80211"></circle>
            <path d="M201,75.08929 C177.43384,77.3974 159.47662,73.54323 148,62.56922 L148,53.73152 L199,53.73152 L201,75.08929 Z" id="Path" fill="#002444"></path>
            <g id="Leuphana_Universität_Lüneburg_Logo_2020" transform="translate(328.000000, 145.000000)">
                <path d="M9.86803751,62.001592 L0,62.001592 L0.02374406,71.5439908 L0,91.8865263 L30.5697065,91.8865263 L30.5697065,87.080434 C30.5697065,87.080434 22.9383602,87.0877967 20.2806069,87.0877967 L9.87436932,87.0877967 L9.87436932,71.5439908 L9.86803751,62.001592 Z M70.2049004,91.8865263 L70.2049004,87.0726786 L45.9162935,87.0882221 L45.9162935,79.0237551 L60.3131188,79.0237551 L60.3131188,74.230068 L45.9162935,74.230068 L45.9162935,66.7983804 L70.2049004,66.7983804 L70.2049004,62.001592 L36.0656682,62.001592 L36.0656682,91.8865263 L70.2049004,91.8865263 Z M144.648912,71.0973447 C144.648912,72.4388331 144.06164,73.7803206 143.197356,74.4518399 C142.336238,75.1249103 140.966996,75.3978602 138.663816,75.3978602 L129.351395,75.3978602 L129.351395,66.7890748 L138.545095,66.7890748 C139.445793,66.7890748 140.694728,66.8790245 141.356398,66.9736267 C142.18538,67.0906491 142.947013,67.4865005 143.510774,68.0933423 C144.256345,68.8098369 144.648912,69.9435105 144.648912,71.0973447 Z M155.477793,70.9686239 C155.477793,66.9751778 152.979916,63.7044281 149.264759,62.6653567 C147.582092,62.2264652 145.74272,62.0000409 143.238514,62.0000409 L119.484935,62.0000409 L119.5008,71.5424397 L119.5008,82.3782535 L119.484935,91.8834258 L129.351395,91.8834258 L129.351395,80.1946486 L141.476705,80.1946486 C146.369563,80.1946486 149.296413,79.5991211 151.645494,78.1816418 C154.030989,76.692823 155.477793,73.9710753 155.477793,70.9686239 Z M197.063165,91.8865263 L197.063165,62.001592 L187.214123,62.001592 L187.214123,74.1866438 L170.243441,74.1866438 L170.213381,62.001592 L160.386499,62.001592 L160.386499,91.8865263 L170.213381,91.8865263 L170.243441,79.3742478 L187.214123,79.3742478 L187.214123,91.8865263 L197.063165,91.8865263 Z M226.023027,77.9040386 L214.766751,77.9040386 L220.474828,67.6466971 L226.023027,77.9040386 Z M245.296881,91.8865263 L228.842238,62.001592 L218.125747,62.001592 L206.20305,83.0172028 C205.770912,83.7305969 201.199387,91.8865263 201.199387,91.8865263 L206.970774,91.8865263 L212.45249,82.2991538 L228.413265,82.2991538 L233.570475,91.8865263 L245.296881,91.8865263 Z M285.416452,62.001592 L280.324146,62.001592 L280.327486,71.5439908 L280.327486,82.2991538 L261.515671,62.001592 L250.289471,62.001592 L250.289471,91.8849802 L255.37387,91.8849802 C255.37387,91.8849802 255.408689,85.3016117 255.408689,84.5820084 C255.37387,84.0888401 255.37387,83.3676907 255.37387,82.3797997 L255.37387,71.2245145 L274.650889,91.8849802 L285.416452,91.8849802 L285.416452,62.001592 Z M314.729311,77.9242001 L303.454038,77.9242001 L309.168444,67.6591032 L314.729311,77.9242001 Z M334,91.9004909 L317.54377,62.0139989 L306.814613,62.0139989 L294.903004,83.0265043 C294.46928,83.7491999 289.885088,91.902037 289.885088,91.902037 L295.670728,91.902037 L301.157195,82.3146645 L317.121126,82.3146645 L322.267265,91.902037 L334,91.9004909 Z M108.280905,62.001592 L103.935732,62.001592 L103.956356,71.5439908 L103.956356,79.8844779 C103.956356,81.0910453 103.785398,82.1549272 103.549536,83.0590719 C103.19021,84.3586903 102.555451,85.4784059 101.722831,86.1949005 C100.41057,87.3440832 98.6234365,87.8729196 96.6400109,87.9504649 C93.6735899,87.8419064 91.1709613,86.9486176 89.5452831,85.4458384 C88.7947148,84.6312261 88.2708354,83.6410232 88.0240801,82.5705584 C87.7628921,81.3190182 87.6615899,80.1419196 87.6615899,77.949014 L87.6615899,62.001592 L77.2109854,62.001592 C77.2109854,62.001592 77.2378975,68.4143689 77.2378975,71.5439908 L77.2378975,80.5017179 C77.2378975,84.357136 78.0214523,86.595021 80.091935,88.7413962 C82.2019925,90.9032902 84.8280842,92.0602282 89.0070421,92.6014748 C89.1827511,92.6340342 89.3679541,92.6340342 89.5436548,92.6557131 C91.0711955,92.8821399 92.6351338,93 94.178506,93 C94.3209654,93 94.4507661,92.9926373 94.5900692,92.9844566 C94.7246127,92.9918193 94.8591646,93 94.9937165,93 C101.952314,93 106.533333,91.5204869 109.149931,88.3520988 C111.066874,86.056834 111.57341,84.0872531 111.57341,79.152435 L111.57341,71.5423988 C111.57341,68.3569465 111.584515,62 111.584515,62 L108.28093,62 L108.280905,62.001592 Z" id="path2" fill="#742128" fill-rule="nonzero"></path>
                <polygon id="path6" fill="#1A171B" points="167 1.36707931 187.255836 13 188 11.6297338 167.745754 0"></polygon>
                <polygon id="path8" fill="#1A171B" points="187 11 188 11 188 34 187 34"></polygon>
                <polygon id="path10" fill="#1A171B" points="167.265852 0 147 11.6332516 147.732559 13 168 1.37469435"></polygon>
                <polygon id="path12" fill="#1A171B" points="148.746905 11 188 33.7404052 187.251499 35 148 12.2595948"></polygon>
                <polygon id="path14" fill="#1A171B" points="148.731863 35 148 33.7329294 186.275957 11 187 12.2623252"></polygon>
                <polygon id="path16" fill="#1A171B" points="167 0 168 0 168 45 167 45"></polygon>
                <polygon id="path18" fill="#1A171B" points="167.271595 46 147 34.3837983 147.73634 33 168 44.6113858"></polygon>
                <polygon id="path20" fill="#1A171B" points="167.754245 46 167 44.6205123 187.253679 33 188 34.3778945"></polygon>
                <polygon id="path22" fill="#1A171B" points="148 11 149 11 149 34 148 34"></polygon>
                <path d="M55.1931131,109.839355 C55.1931131,114.12304 51.8485623,115 49.094972,115 C46.3429662,115 43,114.12304 43,109.839355 L43,102.886866 L44.4370008,102.886866 L44.4370008,109.839355 C44.4370008,112.561887 46.181363,113.799114 49.094972,113.799114 C52.0117501,113.799114 53.7561132,112.561887 53.7561132,109.839355 L53.7561132,102.886866 L55.1931131,102.886866 L55.1931131,109.839355 Z M58.3380361,102.885283 L60.3723338,102.885283 L69.1939618,112.598228 L69.1939618,102.885283 L70.6262097,102.885283 L70.6262097,114.704521 L69.1939618,114.704521 L59.7037406,104.152533 L59.7037406,114.704521 L58.3364515,114.704521 L58.3364515,102.885283 L58.3380361,102.885283 Z M73.7204333,102.885283 L75.1558495,102.885283 L75.1558495,114.704521 L73.7204333,114.704521 L73.7204333,102.885283 Z M78.2579951,102.885283 L83.4863315,113.14811 L88.7384322,102.885283 L90.321193,102.885283 L84.1850281,114.704521 L82.7860469,114.704521 L76.659392,102.885283 L78.2579951,102.885283 Z M91.8168109,102.885283 L102.379631,102.885283 L102.379631,104.154116 L93.2474751,104.154116 L93.2474751,107.92426 L100.880846,107.92426 L100.880846,109.189927 L93.2474751,109.189927 L93.2474751,113.438846 L102.57451,113.438846 L102.57451,114.706096 L91.8152314,114.706096 L91.8152314,102.885283 L91.8168109,102.885283 Z M104.496322,102.885283 L111.347021,102.885283 C113.235563,102.885283 116.006581,103.28505 116.006581,106.182977 C116.006581,108.657431 113.709278,109.374807 112.277034,109.439588 L116.184026,114.706096 L114.409562,114.706096 L110.59604,109.47277 L105.928566,109.47277 L105.928566,114.706096 L104.496322,114.706096 L104.496322,102.885283 Z M105.928566,108.20236 L111.019068,108.20236 C113.088213,108.20236 114.636124,107.908457 114.636124,106.170341 C114.636124,104.444853 113.088213,104.155692 111.019068,104.155692 L105.928566,104.155692 L105.928566,108.20236 Z M119.099218,111.327818 C119.785236,112.234801 120.927553,113.731175 124.482822,113.731175 C126.304814,113.731175 128.796987,113.209731 128.796987,111.365743 C128.796987,107.777313 118.463895,110.935953 118.463895,106.132416 C118.463895,103.608977 120.797637,102.594546 124.026532,102.594546 C127.15244,102.594546 129.074252,103.871273 129.890187,105.008955 L128.847691,105.855891 C128.35971,105.301275 127.218981,103.792265 123.994841,103.792265 C121.615159,103.792265 119.934165,104.410095 119.934165,105.90646 C119.934165,109.480671 130.265677,106.067628 130.265677,111.364159 C130.265677,113.344043 128.342285,114.996841 124.321215,114.996841 C120.439571,114.996841 119.00416,113.378809 117.99176,112.266408 L119.099218,111.327818 Z M132.550302,102.885283 L133.985713,102.885283 L133.985713,114.704521 L132.550302,114.704521 L132.550302,102.885283 Z M141.592156,104.154116 L135.874255,104.154116 L135.874255,102.885283 L148.750216,102.885283 L148.750216,104.154116 L143.029156,104.154116 L143.029156,114.706096 L141.592156,114.706096 L141.592156,104.154116 Z M153.427201,102.885283 L155.190582,102.885283 L161.26654,114.704521 L159.655264,114.704521 L158.124787,111.623306 L150.473983,111.623306 L148.927669,114.704521 L147.33223,114.704521 L153.427201,102.885283 Z M157.487877,110.357631 L154.308098,104.002426 L151.125151,110.357631 L157.487877,110.357631 Z M152.088435,100 L153.557117,100 L153.557117,101.657541 L152.088435,101.657541 L152.088435,100 Z M155.059078,100 L156.527769,100 L156.527769,101.657541 L155.059078,101.657541 L155.059078,100 Z M165.571203,104.154116 L159.848554,104.154116 L159.848554,102.885283 L172.727683,102.885283 L172.727683,104.154116 L167.008202,104.154116 L167.008202,114.706096 L165.571203,114.706096 L165.571203,104.154116 Z M180.50206,102.885283 L181.931136,102.885283 L181.931136,113.438846 L191.285106,113.438846 L191.285106,114.706096 L180.50048,114.706096 L180.50048,102.885283 L180.50206,102.885283 Z M205.423797,109.839355 C205.423797,114.12304 202.083998,115 199.317736,115 C196.576813,115 193.229099,114.12304 193.229099,109.839355 L193.229099,102.886866 L194.659764,102.886866 L194.659764,109.839355 C194.659764,112.561887 196.412046,113.799114 199.316148,113.799114 C202.245597,113.799114 203.98521,112.561887 203.98521,109.839355 L203.98521,102.886866 L205.42063,102.886866 L205.42063,109.839355 L205.423797,109.839355 Z M197.105987,100 L198.569923,100 L198.569923,101.657541 L197.105987,101.657541 L197.105987,100 Z M200.070296,100 L201.538986,100 L201.538986,101.657541 L200.070296,101.657541 L200.070296,100 Z M208.562383,102.885283 L210.60618,102.885283 L219.426229,112.598228 L219.426229,102.885283 L220.86164,102.885283 L220.86164,114.704521 L219.426229,114.704521 L209.931252,104.152533 L209.931252,114.704521 L208.562383,114.704521 L208.562383,102.885283 Z M223.955864,102.885283 L234.51077,102.885283 L234.51077,104.154116 L225.386529,104.154116 L225.386529,107.92426 L233.010397,107.92426 L233.010397,109.189927 L225.386529,109.189927 L225.386529,113.438846 L234.70564,113.438846 L234.70564,114.706096 L223.955864,114.706096 L223.955864,102.885283 Z M236.632208,102.885283 L243.49083,102.885283 C244.854952,102.885283 248.090183,102.885283 248.090183,105.9744 C248.090183,107.598758 247.035009,108.10439 246.285616,108.461498 C247.003326,108.766462 248.498944,109.415883 248.498944,111.391023 C248.498944,114.574952 245.151223,114.704521 242.701831,114.704521 L236.63062,114.704521 L236.63062,102.885283 L236.632208,102.885283 Z M238.069207,107.92426 L243.099502,107.92426 C244.761475,107.92426 246.654763,107.647744 246.654763,105.987044 C246.654763,104.100388 244.728204,104.087752 242.608354,104.087752 L238.069207,104.087752 L238.069207,107.92426 Z M238.069207,113.438846 L243.619166,113.438846 C245.349268,113.438846 247.035009,113.14811 247.035009,111.332561 C247.035009,109.700309 245.732681,109.123563 243.783933,109.123563 L238.069207,109.123563 L238.069207,113.438846 Z M263.369594,109.839355 C263.369594,114.12304 260.025049,115 257.263533,115 C254.519451,115 251.168562,114.12304 251.168562,109.839355 L251.168562,102.886866 L252.602393,102.886866 L252.602393,109.839355 C252.602393,112.561887 254.356264,113.799114 257.261953,113.799114 C260.185068,113.799114 261.931016,112.561887 261.931016,109.839355 L261.931016,102.886866 L263.366427,102.886866 L263.366427,109.839355 L263.369594,109.839355 Z M266.505012,102.885283 L273.360475,102.885283 C275.253764,102.885283 278.024782,103.28505 278.024782,106.182977 C278.024782,108.657431 275.714809,109.374807 274.280977,109.439588 L278.192724,114.706096 L276.427763,114.706096 L272.609494,109.47277 L267.942011,109.47277 L267.942011,114.706096 L266.5066,114.706096 L266.5066,102.885283 L266.505012,102.885283 Z M267.940432,108.20236 L273.034093,108.20236 C275.096912,108.20236 276.655904,107.908457 276.655904,106.170341 C276.655904,104.444853 275.096912,104.155692 273.034093,104.155692 L267.940432,104.155692 L267.940432,108.20236 Z M293,108.962395 L293,114.804067 L291.726188,114.804067 L291.726188,113.081746 C290.922923,113.99663 289.642776,114.998416 286.973159,114.998416 C282.36905,114.998416 280.201671,112.239544 280.201671,108.820182 C280.201671,104.7514 282.956844,102.596122 286.946223,102.596122 C289.772692,102.596122 291.936903,103.860213 292.81622,105.844831 L291.61053,106.47688 C290.683692,104.359526 288.503635,103.795432 286.906617,103.795432 C283.577908,103.795432 281.668774,105.629935 281.668774,108.992418 C281.668774,111.719693 283.512946,113.73275 287.036533,113.73275 C289.184898,113.73275 291.501215,112.694615 291.696084,110.228062 L286.879681,110.228062 L286.879681,108.962395 L293,108.962395 Z" id="path24" fill="#1A171B" fill-rule="nonzero"></path>
            </g>
        </g>
    </g>
</svg>